<svg width="16" height="16" viewBox="0 0 16 16" fill="none" xmlns="http://www.w3.org/2000/svg">
<path d="M8 1.44096C10.136 1.44096 10.3888 1.44895 11.232 1.48733C12.0128 1.52332 12.436 1.65366 12.7184 1.76241C13.0912 1.90795 13.3584 2.08147 13.6384 2.36054C13.9184 2.64042 14.0912 2.9075 14.2368 3.28013C14.3456 3.56241 14.4768 3.98542 14.512 4.76507C14.5504 5.60869 14.5584 5.86058 14.5584 7.99642C14.5584 10.1315 14.5504 10.3842 14.512 11.227C14.476 12.0074 14.3456 12.4304 14.2368 12.7127C14.0912 13.0853 13.9176 13.3524 13.6384 13.6323C13.3584 13.9122 13.0912 14.0849 12.7184 14.2304C12.436 14.34 12.0128 14.4703 11.2328 14.5055C10.3896 14.5439 10.1368 14.5519 8 14.5519C5.864 14.5519 5.6104 14.5439 4.768 14.5055C3.9872 14.4695 3.564 14.34 3.2816 14.2304C2.93407 14.1023 2.61969 13.8979 2.3616 13.6323C2.09589 13.3743 1.89141 13.0601 1.7632 12.7127C1.6536 12.4304 1.5232 12.0074 1.488 11.2278C1.4496 10.3842 1.4416 10.1323 1.4416 7.99642C1.4416 5.86138 1.4496 5.60869 1.488 4.76587C1.524 3.98542 1.6536 3.56241 1.7632 3.28013C1.9088 2.9075 2.0824 2.64042 2.3616 2.36054C2.6416 2.08067 2.9088 1.90795 3.2816 1.76241C3.564 1.65366 3.9872 1.52252 4.7672 1.48733C5.6112 1.44895 5.8632 1.44096 8 1.44096ZM8 0C5.8272 0 5.5552 0.00959571 4.7016 0.0479785C3.8504 0.0879606 3.2688 0.222301 2.76 0.419812C2.226 0.620421 1.74222 0.935067 1.3424 1.3418C0.935485 1.74144 0.620699 2.22501 0.42 2.75877C0.2224 3.26734 0.0872 3.84868 0.048 4.6995C0.0088 5.55272 0 5.82459 0 7.99642C0 10.1683 0.0088 10.4401 0.048 11.2933C0.0872 12.1442 0.2224 12.7255 0.42 13.2341C0.620699 13.7678 0.935485 14.2514 1.3424 14.651C1.74222 15.0578 2.226 15.3724 2.76 15.573C3.2688 15.7705 3.8504 15.9057 4.7016 15.9449C5.5552 15.984 5.8272 15.9928 8 15.9928C10.1728 15.9928 10.4448 15.984 11.2984 15.9449C12.1496 15.9057 12.7312 15.7705 13.24 15.573C13.774 15.3724 14.2578 15.0578 14.6576 14.651C15.0645 14.2514 15.3793 13.7678 15.58 13.2341C15.7776 12.7255 15.9128 12.1442 15.952 11.2933C15.9904 10.4401 16 10.1683 16 7.99642C16 5.82459 15.9904 5.55272 15.952 4.6995C15.9128 3.84868 15.7776 3.26734 15.58 2.75877C15.3793 2.22501 15.0645 1.74144 14.6576 1.3418C14.2578 0.935067 13.774 0.620421 13.24 0.419812C12.7312 0.222301 12.1496 0.087161 11.2984 0.0479785C10.4448 0.00959571 10.1728 0 8 0ZM8 3.89026C6.91049 3.89026 5.8656 4.32287 5.09521 5.09293C4.32481 5.86298 3.892 6.9074 3.892 7.99642C3.892 9.08544 4.32481 10.1299 5.09521 10.8999C5.8656 11.67 6.91049 12.1026 8 12.1026C9.08951 12.1026 10.1344 11.67 10.9048 10.8999C11.6752 10.1299 12.108 9.08544 12.108 7.99642C12.108 6.9074 11.6752 5.86298 10.9048 5.09293C10.1344 4.32287 9.08951 3.89026 8 3.89026ZM8 10.6616C7.29283 10.6616 6.61462 10.3808 6.11457 9.88101C5.61452 9.38119 5.3336 8.70328 5.3336 7.99642C5.3336 7.28957 5.61452 6.61166 6.11457 6.11184C6.61462 5.61201 7.29283 5.33121 8 5.33121C8.70717 5.33121 9.38538 5.61201 9.88543 6.11184C10.3855 6.61166 10.6664 7.28957 10.6664 7.99642C10.6664 8.70328 10.3855 9.38119 9.88543 9.88101C9.38538 10.3808 8.70717 10.6616 8 10.6616ZM13.2304 3.72793C13.2304 3.98243 13.1293 4.2265 12.9492 4.40645C12.7692 4.58641 12.525 4.6875 12.2704 4.6875C12.0158 4.6875 11.7716 4.58641 11.5916 4.40645C11.4115 4.2265 11.3104 3.98243 11.3104 3.72793C11.3104 3.47344 11.4115 3.22937 11.5916 3.04941C11.7716 2.86946 12.0158 2.76836 12.2704 2.76836C12.525 2.76836 12.7692 2.86946 12.9492 3.04941C13.1293 3.22937 13.2304 3.47344 13.2304 3.72793Z" fill="#040062"/>
</svg>
