<svg width="15" height="15" viewBox="0 0 15 15" fill="none" xmlns="http://www.w3.org/2000/svg">
<path d="M14.1938 8.97998V14.6468H11.1511V9.35937C11.1511 8.03107 10.7111 7.12481 9.61067 7.12481C8.76978 7.12481 8.26933 7.73609 8.04978 8.32694C7.96889 8.5384 7.94845 8.83249 7.94845 9.12747V14.6468H4.90578C4.90578 14.6468 4.94667 5.69168 4.90578 4.76409H7.94845V6.16524L7.928 6.19723H7.94845V6.16524C8.35289 5.49265 9.07467 4.53219 10.6907 4.53219C12.6924 4.53219 14.1938 5.94401 14.1938 8.97998ZM1.72267 0C0.680889 0 0 0.737448 0 1.70679C0 2.6557 0.661334 3.42602 1.68178 3.42602H1.70222C2.76356 3.42602 3.42311 2.6557 3.42311 1.70679C3.40356 0.737448 2.76356 0 1.72267 0ZM0.181333 14.6468H3.22311V4.76409H0.181333V14.6468Z" fill="#040062"/>
</svg>
