<svg width="17" height="14" viewBox="0 0 17 14" fill="none" xmlns="http://www.w3.org/2000/svg">
<path d="M17 1.65626C16.3642 1.94158 15.6889 2.12928 14.997 2.21301C15.7278 1.76817 16.2725 1.07353 16.53 0.257885C15.856 0.662703 15.11 0.957572 14.316 1.1155C13.9917 0.763901 13.598 0.483262 13.1599 0.291274C12.7217 0.0992856 12.2484 0.000110504 11.77 0C9.844 0 8.282 1.58129 8.282 3.53242C8.282 3.8093 8.313 4.07918 8.372 4.33806C5.474 4.19013 2.904 2.78375 1.183 0.646711C0.872607 1.18718 0.709833 1.79973 0.711 2.42292C0.711 3.64837 1.327 4.72988 2.263 5.3626C1.70833 5.34526 1.16616 5.19365 0.683 4.9208V4.96578C0.683 6.67701 1.885 8.10537 3.48 8.42923C2.96685 8.57148 2.42762 8.59236 1.905 8.4902C2.349 9.89357 3.637 10.9151 5.164 10.9431C4.44353 11.5175 3.61585 11.9427 2.72924 12.1939C1.84263 12.4452 0.914842 12.5174 0 12.4065C1.59006 13.4431 3.44763 13.9946 5.346 13.9937C11.762 13.9937 15.27 8.61015 15.27 3.94224C15.27 3.78931 15.266 3.63637 15.26 3.48544C15.9438 2.98352 16.5329 2.36417 17 1.65626Z" fill="#040062"/>
</svg>
